<?xml version="1.0" encoding="utf-8"?><!-- Uploaded to: SVG Repo, www.svgrepo.com, Generator: SVG Repo Mixer Tools -->
<svg fill="#000000" width="800px" height="800px" viewBox="0 0 24 24" id="mp3-player" data-name="Flat Color" xmlns="http://www.w3.org/2000/svg" class="icon flat-color"><path id="primary" d="M18,4V8a1,1,0,0,1-1,1,2,2,0,0,0-1.23.42A2,2,0,0,0,15,11v4a4,4,0,0,0-4,4v2a1,1,0,0,1-1,1H4a2,2,0,0,1-2-2V4A2,2,0,0,1,4,2H16A2,2,0,0,1,18,4Z" style="fill: rgb(0, 0, 0);"></path><path id="secondary" d="M22,12v2a1,1,0,0,1-.38.79,1,1,0,0,1-.86.18L18,14.28V19h0a3,3,0,1,1-2-2.83V11a1,1,0,0,1,.38-.79,1,1,0,0,1,.86-.18l4,1A1,1,0,0,1,22,12ZM10,7a3,3,0,1,0,3,3A3,3,0,0,0,10,7Z" style="fill: rgb(44, 169, 188);"></path></svg>